<svg width="34" height="34" viewBox="0 0 34 34" fill="none" xmlns="http://www.w3.org/2000/svg">
<rect width="34" height="34" fill="white"/>
<path d="M30.9091 4.77273C29.1936 4.23182 27.3082 4 25.5 4C22.4864 4 19.2409 4.61818 17 6.31818C14.7591 4.61818 11.5136 4 8.5 4C5.48636 4 2.24091 4.61818 0 6.31818V28.9591C0 29.3455 0.386364 29.7318 0.772727 29.7318C0.927273 29.7318 1.00455 29.6545 1.15909 29.6545C3.24545 28.65 6.25909 27.9545 8.5 27.9545C11.5136 27.9545 14.7591 28.5727 17 30.2727C19.0864 28.9591 22.8727 27.9545 25.5 27.9545C28.05 27.9545 30.6773 28.4182 32.8409 29.5773C32.9955 29.6545 33.0727 29.6545 33.2273 29.6545C33.6136 29.6545 34 29.2682 34 28.8818V6.31818C33.0727 5.62273 32.0682 5.15909 30.9091 4.77273ZM30.9091 25.6364C29.2091 25.0955 27.3545 24.8636 25.5 24.8636C22.8727 24.8636 19.0864 25.8682 17 27.1818V9.40909C19.0864 8.09545 22.8727 7.09091 25.5 7.09091C27.3545 7.09091 29.2091 7.32273 30.9091 7.86364V25.6364Z" fill="url(#paint0_linear)"/>
<path d="M25.5 13.2728C26.86 13.2728 28.1736 13.4119 29.3636 13.6746V11.3255C28.1427 11.0937 26.8291 10.9546 25.5 10.9546C22.8727 10.9546 20.4927 11.4028 18.5454 12.2373V14.8028C20.2918 13.8137 22.7182 13.2728 25.5 13.2728Z" fill="url(#paint1_linear)"/>
<path d="M18.5455 16.3483V18.9137C20.2918 17.9246 22.7182 17.3837 25.5 17.3837C26.86 17.3837 28.1737 17.5228 29.3637 17.7856V15.4365C28.1427 15.2046 26.8291 15.0656 25.5 15.0656C22.8727 15.0656 20.4927 15.5292 18.5455 16.3483Z" fill="url(#paint2_linear)"/>
<path d="M25.5 19.1919C22.8727 19.1919 20.4927 19.6401 18.5455 20.4746V23.0401C20.2918 22.051 22.7182 21.5101 25.5 21.5101C26.86 21.5101 28.1737 21.6492 29.3637 21.9119V19.5628C28.1427 19.3155 26.8291 19.1919 25.5 19.1919Z" fill="url(#paint3_linear)"/>
<defs>
<linearGradient id="paint0_linear" x1="17" y1="4" x2="17" y2="30.2727" gradientUnits="userSpaceOnUse">
<stop stop-color="#FF00D6"/>
<stop offset="1" stop-color="#FC1818"/>
</linearGradient>
<linearGradient id="paint1_linear" x1="23.9545" y1="10.9546" x2="23.9545" y2="14.8028" gradientUnits="userSpaceOnUse">
<stop stop-color="#FF00D6"/>
<stop offset="1" stop-color="#FC1818"/>
</linearGradient>
<linearGradient id="paint2_linear" x1="23.9546" y1="15.0656" x2="23.9546" y2="18.9137" gradientUnits="userSpaceOnUse">
<stop stop-color="#FF00D6"/>
<stop offset="1" stop-color="#FC1818"/>
</linearGradient>
<linearGradient id="paint3_linear" x1="23.9546" y1="19.1919" x2="23.9546" y2="23.0401" gradientUnits="userSpaceOnUse">
<stop stop-color="#FF00D6"/>
<stop offset="1" stop-color="#FC1818"/>
</linearGradient>
</defs>
</svg>
