<svg width="34" height="34" viewBox="0 0 34 34" fill="none" xmlns="http://www.w3.org/2000/svg">
<rect width="34" height="34" fill="white"/>
<path d="M28.2157 19.3861V14.6602C29.8025 14.3429 30.9999 12.9169 30.9999 11.2053C30.9999 9.26087 29.4543 7.68461 27.5481 7.68461C26.6008 7.68461 25.7425 8.07382 25.119 8.70426L20.7685 5.93966C20.7844 5.80205 20.7927 5.66249 20.7927 5.52066C20.7927 3.57625 19.2474 2 17.3412 2C15.4349 2 13.8896 3.57625 13.8896 5.52066C13.8896 7.46508 15.4349 9.04133 17.3412 9.04133C18.6236 9.04133 19.7429 8.32768 20.3378 7.26853L24.3696 9.83075C24.194 10.253 24.0966 10.7176 24.0966 11.2053C24.0966 12.9169 25.294 14.3429 26.8805 14.6602V19.3861C25.294 19.7031 24.0966 21.1294 24.0966 22.841C24.0966 24.7854 25.6422 26.3613 27.5481 26.3613C29.4543 26.3613 30.9999 24.7854 30.9999 22.841C30.9999 21.1294 29.8025 19.7031 28.2157 19.3861" fill="url(#paint0_linear)"/>
<path d="M20.7922 17.0233C20.7922 15.0789 19.2469 13.5026 17.3407 13.5026C15.4348 13.5026 13.8892 15.0789 13.8892 17.0233C13.8892 18.7346 15.0866 20.1593 16.6731 20.4766V25.1533C15.8224 25.3232 15.0837 25.8122 14.5815 26.4928L10.7018 24.0274C10.8319 23.6566 10.9027 23.2574 10.9027 22.841C10.9027 21.1297 9.70564 19.7034 8.11877 19.3861V14.6602C9.70564 14.3432 10.9027 12.9169 10.9027 11.2056C10.9027 9.26086 9.35773 7.68494 7.45151 7.68494C5.54497 7.68494 4 9.26086 4 11.2056C4 12.9169 5.19706 14.3432 6.78394 14.6602V19.3861C5.19706 19.7034 4 21.1297 4 22.841C4 24.7854 5.54497 26.3617 7.45151 26.3617C8.47017 26.3617 9.38598 25.9116 10.0177 25.1953L13.9987 27.7252C13.9273 28.0072 13.8892 28.3032 13.8892 28.6079C13.8892 30.5523 15.4348 32.1285 17.3407 32.1285C19.2469 32.1285 20.7922 30.5523 20.7922 28.6079C20.7922 26.8966 19.5951 25.4702 18.0083 25.1533V20.4766C19.5948 20.1593 20.7922 18.7346 20.7922 17.0233" fill="url(#paint1_linear)"/>
<path d="M16.4379 31.8935C15.0797 31.4738 14.0195 29.9766 14.0195 28.4783C14.0195 27.6116 13.9708 27.5593 12.0378 26.3488C10.4464 25.3523 9.98668 25.1599 9.70353 25.3722C8.13485 26.548 6.42222 26.5191 5.2237 25.2965C3.49038 23.5285 3.9972 20.6115 6.20089 19.6723L6.95972 19.3489V17.0464V14.744L6.00349 14.2039C3.36643 12.7145 3.63105 9.00256 6.44667 7.98726C8.87246 7.11254 11.3819 9.59511 10.6367 12.1323C10.3628 13.065 9.03512 14.4769 8.43207 14.4769C8.15921 14.4769 8.09839 14.9426 8.09839 17.0321C8.09839 19.1216 8.15921 19.5874 8.43207 19.5874C8.99514 19.5874 10.3329 20.958 10.6121 21.821C10.7574 22.2701 10.816 22.9705 10.7422 23.3774C10.6118 24.0968 10.6618 24.1509 12.5522 25.3402L14.4964 26.5633L15.2258 26.0134C15.627 25.711 16.1346 25.3991 16.3538 25.3203C16.6994 25.1961 16.7509 24.8599 16.7417 22.7888L16.731 20.4004L15.7999 19.9341C13.4074 18.7358 13.4411 15.3421 15.8582 14.0572C17.0354 13.4314 18.2411 13.5064 19.2938 14.271C21.2938 15.7237 21.0032 19.0693 18.7948 20.0152L17.8956 20.4004L17.8933 22.7623L17.891 25.1243L18.742 25.5499C20.4309 26.3947 21.0865 28.3952 20.2579 30.1762C19.64 31.5045 17.8227 32.3215 16.4379 31.8935H16.4379Z" fill="url(#paint2_linear)"/>
<path d="M26.1486 25.8784C23.6415 24.6883 23.6073 20.9209 26.094 19.8558L26.9932 19.4706L26.9956 17.0201L26.9979 14.5695L26.1922 14.2724C25.6956 14.0892 25.1606 13.6269 24.7974 13.067C24.3011 12.3021 24.2239 11.965 24.3081 10.9293L24.4081 9.69968L22.3896 8.45485L20.3711 7.21002L19.7561 7.79486C18.8744 8.63325 18.2687 8.90107 17.254 8.90107C14.8542 8.90107 13.2221 5.93642 14.4713 3.84648C16.0915 1.1359 20.2175 1.92293 20.5584 5.00757C20.6686 6.00505 20.7049 6.04291 22.8287 7.37632L24.987 8.73139L25.9605 8.23548C27.1956 7.60628 27.7952 7.6115 29.0393 8.26225C31.4483 9.52227 31.4771 12.9299 29.0889 14.126L28.1578 14.5923L28.1472 17.0429L28.1366 19.4934L28.9269 19.7849C31.2213 20.6312 31.5014 24.2948 29.3742 25.6359C28.2603 26.3381 27.2733 26.4123 26.1486 25.8784L26.1486 25.8784Z" fill="url(#paint3_linear)"/>
<path d="M6.84067 26.2865C5.21289 25.9716 4.03333 24.5368 4.03333 22.8718C4.03333 22.6365 4.06203 22.3017 4.0971 22.1276C4.27429 21.2481 4.81968 20.4294 5.56777 19.9198C5.86407 19.7179 6.38046 19.4793 6.47876 19.4988C6.51379 19.5058 6.43534 19.5553 6.30441 19.6089C5.26924 20.0326 4.55301 20.8517 4.27113 21.9343C4.15137 22.3942 4.15118 23.1566 4.2707 23.6179C4.56386 24.7494 5.37454 25.6938 6.37108 26.0647C7.34887 26.4287 8.44336 26.2393 9.51948 25.5197C9.69162 25.4046 9.84056 25.3187 9.85045 25.3288C9.88984 25.3689 9.26774 25.8256 8.96494 25.9787C8.3384 26.2957 7.50913 26.4159 6.84067 26.2865V26.2865Z" fill="url(#paint4_linear)"/>
<path d="M6.94937 17.0474C6.94937 15.7826 6.95466 15.2593 6.96112 15.8844C6.96757 16.5096 6.96757 17.5444 6.96113 18.1841C6.95469 18.8237 6.94938 18.3122 6.94938 17.0474H6.94937Z" fill="url(#paint5_linear)"/>
<path d="M6.81125 17.0292C6.81125 14.9666 6.81837 14.6926 6.87164 14.7134C6.92432 14.7341 6.93202 15.0323 6.93202 17.0528C6.93202 19.0839 6.9246 19.3686 6.87164 19.3686C6.81867 19.3686 6.81125 19.0813 6.81125 17.0292V17.0292Z" fill="url(#paint6_linear)"/>
<path d="M27.0571 26.3146C25.9393 26.1356 24.9705 25.4212 24.4846 24.4175C24.2121 23.8545 24.126 23.4779 24.125 22.846C24.1243 22.3713 24.1562 22.1525 24.2849 21.7472C24.6355 20.6432 25.5668 19.7427 26.6546 19.4558L26.8999 19.3911V17.0235V14.6559L26.6946 14.602C25.584 14.3101 24.6564 13.4348 24.2955 12.3381C24.1557 11.9136 24.1281 11.7265 24.1278 11.2022C24.1274 10.7651 24.136 10.6736 24.2022 10.4036C24.2434 10.2359 24.2967 10.053 24.3206 9.99712L24.3641 9.89549L24.3647 10.0116C24.365 10.0755 24.3464 10.3499 24.3235 10.6214C24.263 11.3367 24.2676 11.8509 24.3369 12.1274C24.482 12.7062 25.0346 13.5162 25.5572 13.9162C25.8283 14.1237 26.0211 14.2215 26.526 14.4074L26.9711 14.5713V17.0192V19.4671L26.416 19.7075C25.8243 19.9636 25.6509 20.059 25.3721 20.2822C24.8909 20.6673 24.5256 21.2515 24.35 21.9169C24.2475 22.3053 24.2212 22.999 24.2939 23.3978C24.5247 24.6634 25.3082 25.5977 26.5072 26.037C26.9329 26.193 27.2189 26.2384 27.6675 26.221C28.2259 26.1995 28.651 26.0705 29.1915 25.7587C29.9225 25.337 30.3844 24.7742 30.6405 23.993C31.0525 22.7362 30.7674 21.2969 29.9365 20.4392C29.5799 20.0711 29.2904 19.9012 28.5723 19.6384L28.1525 19.4847V18.0414C28.1525 17.2475 28.1609 16.1472 28.1712 15.5961L28.19 14.5942L28.7761 14.2961C29.401 13.9783 29.6149 13.8394 29.9034 13.5641C30.536 12.9605 30.8685 12.1556 30.8672 11.2312C30.8662 10.552 30.6826 9.94253 30.3073 9.37282C30.1298 9.10329 29.7048 8.67635 29.4203 8.48174C28.9911 8.18822 28.3533 7.90017 27.9247 7.80637L27.7397 7.76587L27.9834 7.76362C28.7514 7.75636 29.73 8.32885 30.314 9.12711C31.3249 10.5089 31.1774 12.4611 29.9694 13.6887C29.5563 14.1084 29.0403 14.4165 28.4825 14.5764L28.2094 14.6547V17.03C28.2094 19.1134 28.2146 19.4052 28.2517 19.4052C28.3456 19.4052 28.8647 19.5941 29.0919 19.7109C30.6402 20.5072 31.3686 22.3631 30.7841 24.0221C30.6147 24.503 30.3836 24.8792 30.0239 25.2599C29.5399 25.7721 29.042 26.067 28.3541 26.2487C28.1381 26.3058 27.9923 26.323 27.6543 26.3314C27.4194 26.3372 27.1507 26.3297 27.0571 26.3147L27.0571 26.3146Z" fill="url(#paint7_linear)"/>
<defs>
<linearGradient id="paint0_linear" x1="22.4448" y1="2" x2="22.4448" y2="26.3613" gradientUnits="userSpaceOnUse">
<stop stop-color="#FF9251"/>
<stop offset="1" stop-color="#FF0101"/>
</linearGradient>
<linearGradient id="paint1_linear" x1="12.3961" y1="7.68494" x2="12.3961" y2="32.1285" gradientUnits="userSpaceOnUse">
<stop stop-color="#FF9251"/>
<stop offset="1" stop-color="#FF0101"/>
</linearGradient>
<linearGradient id="paint2_linear" x1="12.404" y1="7.80823" x2="12.404" y2="32.0079" gradientUnits="userSpaceOnUse">
<stop stop-color="#FF9251"/>
<stop offset="1" stop-color="#FF0101"/>
</linearGradient>
<linearGradient id="paint3_linear" x1="22.4518" y1="2.19312" x2="22.4518" y2="26.2283" gradientUnits="userSpaceOnUse">
<stop stop-color="#FF9251"/>
<stop offset="1" stop-color="#FF0101"/>
</linearGradient>
<linearGradient id="paint4_linear" x1="6.94278" y1="19.4977" x2="6.94278" y2="26.3378" gradientUnits="userSpaceOnUse">
<stop stop-color="#FF9251"/>
<stop offset="1" stop-color="#FF0101"/>
</linearGradient>
<linearGradient id="paint5_linear" x1="6.95767" y1="15.6204" x2="6.95767" y2="18.4598" gradientUnits="userSpaceOnUse">
<stop stop-color="#FF9251"/>
<stop offset="1" stop-color="#FF0101"/>
</linearGradient>
<linearGradient id="paint6_linear" x1="6.87164" y1="14.7124" x2="6.87164" y2="19.3686" gradientUnits="userSpaceOnUse">
<stop stop-color="#FF9251"/>
<stop offset="1" stop-color="#FF0101"/>
</linearGradient>
<linearGradient id="paint7_linear" x1="27.5551" y1="7.76355" x2="27.5551" y2="26.3334" gradientUnits="userSpaceOnUse">
<stop stop-color="#FF9251"/>
<stop offset="1" stop-color="#FF0101"/>
</linearGradient>
</defs>
</svg>
