<svg width="24" height="24" viewBox="0 0 24 24" fill="none" xmlns="http://www.w3.org/2000/svg">
    <path d="M18.2988 4.70997C17.9088 4.31997 17.2788 4.31997 16.8888 4.70997L11.9988 9.58997L7.10875 4.69997C6.71875 4.30997 6.08875 4.30997 5.69875 4.69997C5.30875 5.08997 5.30875 5.71997 5.69875 6.10997L10.5888 11L5.69875 15.89C5.30875 16.28 5.30875 16.91 5.69875 17.3C6.08875 17.69 6.71875 17.69 7.10875 17.3L11.9988 12.41L16.8888 17.3C17.2788 17.69 17.9088 17.69 18.2988 17.3C18.6888 16.91 18.6888 16.28 18.2988 15.89L13.4088 11L18.2988 6.10997C18.6788 5.72997 18.6788 5.08997 18.2988 4.70997V4.70997Z" fill="#1F1F1F"/>
</svg>
