<svg width="36" height="36" viewBox="0 0 36 36" fill="none" xmlns="http://www.w3.org/2000/svg">
<path d="M23.5 10.5C21.55 10.5 19.45 10.9 18 12C16.55 10.9 14.45 10.5 12.5 10.5C10.55 10.5 8.45 10.9 7 12V26.65C7 27.3 7.73 27.1 7.75 27.1C9.1 26.45 11.05 26 12.5 26C14.45 26 16.55 26.4 18 27.5C19.35 26.65 21.8 26 23.5 26C25.15 26 26.85 26.3 28.25 27.05C28.66 27.26 29 26.86 29 26.6V12C27.51 10.88 25.37 10.5 23.5 10.5ZM27 24.5C25.9 24.15 24.7 24 23.5 24C21.8 24 19.35 24.65 18 25.5V14C19.35 13.15 21.8 12.5 23.5 12.5C24.7 12.5 25.9 12.65 27 13V24.5Z" fill="#FF6000"/>
</svg>
