<svg width="32" height="35" viewBox="0 0 32 35" fill="none" xmlns="http://www.w3.org/2000/svg">
<path d="M28.1307 20.1973V14.7073C29.9742 14.3387 31.3652 12.6821 31.3652 10.6937C31.3652 8.43491 29.5697 6.60379 27.3552 6.60379C26.2548 6.60379 25.2577 7.05592 24.5334 7.7883L19.4795 4.57668C19.4979 4.41682 19.5075 4.25469 19.5075 4.08994C19.5075 1.83112 17.7123 0 15.4979 0C13.2834 0 11.4883 1.83112 11.4883 4.08994C11.4883 6.34875 13.2834 8.17988 15.4979 8.17988C16.9877 8.17988 18.288 7.35083 18.979 6.12043L23.6627 9.09694C23.4588 9.58745 23.3456 10.1272 23.3456 10.6937C23.3456 12.6821 24.7366 14.3387 26.5797 14.7073V20.1973C24.7366 20.5655 23.3456 22.2225 23.3456 24.2109C23.3456 26.4697 25.1411 28.3004 27.3552 28.3004C29.5697 28.3004 31.3652 26.4697 31.3652 24.2109C31.3652 22.2225 29.9742 20.5655 28.1307 20.1973" fill="url(#paint0_linear)"/>
<path d="M19.5074 17.4524C19.5074 15.1935 17.7122 13.3624 15.4978 13.3624C13.2837 13.3624 11.4882 15.1935 11.4882 17.4524C11.4882 19.4403 12.8792 21.0954 14.7223 21.4641V26.8969C13.734 27.0944 12.8759 27.6623 12.2925 28.453L7.7854 25.589C7.9366 25.1583 8.01883 24.6945 8.01883 24.2107C8.01883 22.2228 6.62821 20.5658 4.78475 20.1972V14.7072C6.62821 14.3389 8.01883 12.682 8.01883 10.694C8.01883 8.43478 6.22405 6.60403 4.0096 6.60403C1.79479 6.60403 0 8.43478 0 10.694C0 12.682 1.39062 14.3389 3.23408 14.7072V20.1972C1.39062 20.5658 0 22.2228 0 24.2107C0 26.4696 1.79479 28.3007 4.0096 28.3007C5.19297 28.3007 6.25687 27.7778 6.99071 26.9458L11.6154 29.8847C11.5324 30.2123 11.4882 30.5561 11.4882 30.9101C11.4882 33.1689 13.2837 35 15.4978 35C17.7122 35 19.5074 33.1689 19.5074 30.9101C19.5074 28.9221 18.1168 27.2651 16.2733 26.8969V21.4641C18.1164 21.0954 19.5074 19.4403 19.5074 17.4524Z" fill="url(#paint1_linear)"/>
<path d="M14.4487 34.7272C12.8709 34.2395 11.6393 32.5003 11.6393 30.7598C11.6393 29.7528 11.5828 29.6921 9.3372 28.2859C7.48852 27.1282 6.95443 26.9048 6.62549 27.1513C4.80317 28.5173 2.8136 28.4837 1.42129 27.0635C-0.592287 25.0096 -0.00351885 21.6209 2.55649 20.5298L3.43802 20.1541V17.4794V14.8046L2.32718 14.1772C-0.736286 12.447 -0.428881 8.13485 2.84201 6.95539C5.66003 5.93923 8.57529 8.82321 7.70955 11.7707C7.39132 12.8541 5.849 14.4943 5.14844 14.4943C4.83146 14.4943 4.76081 15.0354 4.76081 17.4628C4.76081 19.8901 4.83146 20.4312 5.14844 20.4312C5.80256 20.4312 7.35664 22.0234 7.681 23.0259C7.8498 23.5477 7.91781 24.3613 7.83214 24.834C7.68066 25.6697 7.73868 25.7326 9.93483 27.1142L12.1933 28.535L13.0407 27.8962C13.5067 27.5449 14.0964 27.1826 14.351 27.0911C14.7525 26.9468 14.8124 26.5562 14.8016 24.1502L14.7893 21.3757L13.7076 20.8339C10.9283 19.4419 10.9674 15.4994 13.7753 14.0068C15.1429 13.2798 16.5436 13.367 17.7664 14.2552C20.0898 15.9427 19.7522 19.8293 17.1868 20.9282L16.1422 21.3757L16.1395 24.1195L16.1368 26.8633L17.1254 27.3578C19.0875 28.3392 19.849 30.6632 18.8865 32.7322C18.1686 34.2753 16.0574 35.2244 14.4487 34.7272H14.4487Z" fill="url(#paint2_linear)"/>
<path d="M25.73 27.7401C22.8175 26.3576 22.7778 21.9811 25.6666 20.7437L26.7112 20.2962L26.7139 17.4495L26.7166 14.6027L25.7807 14.2575C25.2037 14.0447 24.5822 13.5076 24.1603 12.8573C23.5838 11.9686 23.4941 11.577 23.592 10.3738L23.7081 8.94543L21.3632 7.49932L19.0184 6.05321L18.3039 6.73261C17.2796 7.70657 16.5759 8.01769 15.3972 8.01769C12.6093 8.01769 10.7133 4.57368 12.1645 2.1458C14.0467 -1.00307 18.8399 -0.088779 19.2359 3.49464C19.3639 4.6534 19.4061 4.69738 21.8733 6.2464L24.3806 7.82057L25.5114 7.24448C26.9463 6.51355 27.6428 6.5196 29.0881 7.27558C31.8866 8.73933 31.9201 12.6979 29.1458 14.0875L28.0641 14.6292L28.0518 17.476L28.0394 20.3227L28.9575 20.6614C31.623 21.6445 31.9483 25.9005 29.4772 27.4584C28.1832 28.2741 27.0365 28.3604 25.73 27.7402L25.73 27.7401Z" fill="url(#paint3_linear)"/>
<path d="M3.30034 28.214C1.40935 27.8481 0.0390625 26.1813 0.0390625 24.2471C0.0390625 23.9738 0.0724048 23.5848 0.113148 23.3826C0.318995 22.3609 0.952563 21.4098 1.82162 20.8178C2.16583 20.5833 2.76572 20.3061 2.87991 20.3287C2.92061 20.3368 2.82946 20.3943 2.67737 20.4566C1.47482 20.9488 0.642779 21.9004 0.315315 23.158C0.176196 23.6922 0.175972 24.578 0.314822 25.1139C0.655385 26.4283 1.59715 27.5254 2.75482 27.9563C3.89071 28.3792 5.16218 28.1591 6.41229 27.3232C6.61227 27.1895 6.78529 27.0896 6.79679 27.1014C6.84254 27.148 6.11985 27.6785 5.76809 27.8564C5.04024 28.2247 4.07689 28.3642 3.30034 28.214Z" fill="url(#paint4_linear)"/>
<path d="M3.42578 17.4811C3.42577 16.0118 3.43192 15.4038 3.43943 16.1301C3.44693 16.8563 3.44693 18.0585 3.43945 18.8015C3.43196 19.5446 3.42579 18.9504 3.42579 17.4811H3.42578Z" fill="url(#paint5_linear)"/>
<path d="M3.26562 17.4588C3.26562 15.0627 3.27389 14.7444 3.33578 14.7686C3.39698 14.7925 3.40593 15.139 3.40593 17.4862C3.40593 19.8457 3.3973 20.1765 3.33578 20.1765C3.27424 20.1765 3.26562 19.8427 3.26562 17.4588Z" fill="url(#paint6_linear)"/>
<path d="M26.785 28.2463C25.4865 28.0384 24.3611 27.2084 23.7967 26.0424C23.4801 25.3884 23.38 24.9509 23.3789 24.2169C23.3781 23.6654 23.4151 23.4112 23.5646 22.9403C23.9719 21.6578 25.0538 20.6117 26.3175 20.2784L26.6025 20.2033V17.4529V14.7024L26.3639 14.6398C25.0738 14.3008 23.9962 13.2839 23.5769 12.0099C23.4146 11.5167 23.3825 11.2994 23.3821 10.6902C23.3817 10.1825 23.3916 10.0762 23.4686 9.7626C23.5164 9.56779 23.5783 9.35528 23.6061 9.29034L23.6567 9.17228L23.6573 9.30721C23.6576 9.38142 23.6361 9.70019 23.6094 10.0156C23.5392 10.8465 23.5445 11.4438 23.6251 11.7651C23.7936 12.4374 24.4355 13.3784 25.0426 13.8431C25.3576 14.0842 25.5815 14.1977 26.168 14.4137L26.6851 14.6042V17.4479V20.2916L26.0403 20.5708C25.3529 20.8683 25.1515 20.9792 24.8276 21.2385C24.2686 21.6859 23.8443 22.3644 23.6402 23.1374C23.5211 23.5887 23.4906 24.3945 23.5751 24.8578C23.8432 26.3281 24.7534 27.4134 26.1462 27.9238C26.6408 28.105 26.973 28.1577 27.4941 28.1376C28.1428 28.1125 28.6367 27.9627 29.2646 27.6005C30.1138 27.1106 30.6504 26.4568 30.9479 25.5493C31.4266 24.0892 31.0953 22.4172 30.13 21.4208C29.7158 20.9933 29.3795 20.7958 28.5453 20.4906L28.0575 20.3121V18.6353C28.0575 17.7131 28.0674 16.4348 28.0793 15.7947L28.1011 14.6308L28.7821 14.2845C29.508 13.9152 29.7565 13.7539 30.0916 13.4341C30.8265 12.7329 31.2128 11.7978 31.2112 10.724C31.2101 9.93499 30.9967 9.22693 30.5608 8.5651C30.3546 8.25198 29.8609 7.75602 29.5303 7.52994C29.0318 7.18895 28.2908 6.85433 27.793 6.74537L27.578 6.69832L27.8612 6.6957C28.7534 6.68727 29.8901 7.35233 30.5686 8.27966C31.7429 9.88492 31.5716 12.1528 30.1683 13.5788C29.6884 14.0664 29.089 14.4243 28.441 14.6101L28.1237 14.7011V17.4604C28.1237 19.8807 28.1297 20.2197 28.1729 20.2197C28.2819 20.2197 28.885 20.4391 29.1488 20.5748C30.9475 21.4999 31.7938 23.6558 31.1147 25.5831C30.9179 26.1417 30.6495 26.5788 30.2316 27.021C29.6693 27.616 29.0909 27.9586 28.2918 28.1697C28.0409 28.2361 27.8715 28.2561 27.4788 28.2658C27.206 28.2725 26.8938 28.2638 26.785 28.2464L26.785 28.2463Z" fill="url(#paint7_linear)"/>
<defs>
<linearGradient id="paint0_linear" x1="21.4267" y1="0" x2="21.4267" y2="28.3004" gradientUnits="userSpaceOnUse">
<stop stop-color="#FF9251"/>
<stop offset="1" stop-color="#FF0101"/>
</linearGradient>
<linearGradient id="paint1_linear" x1="9.7537" y1="6.60403" x2="9.7537" y2="35" gradientUnits="userSpaceOnUse">
<stop stop-color="#FF9251"/>
<stop offset="1" stop-color="#FF0101"/>
</linearGradient>
<linearGradient id="paint2_linear" x1="9.76261" y1="6.74741" x2="9.76261" y2="34.8601" gradientUnits="userSpaceOnUse">
<stop stop-color="#FF9251"/>
<stop offset="1" stop-color="#FF0101"/>
</linearGradient>
<linearGradient id="paint3_linear" x1="21.4355" y1="0.225098" x2="21.4355" y2="28.1466" gradientUnits="userSpaceOnUse">
<stop stop-color="#FF9251"/>
<stop offset="1" stop-color="#FF0101"/>
</linearGradient>
<linearGradient id="paint4_linear" x1="3.41896" y1="20.3274" x2="3.41896" y2="28.2735" gradientUnits="userSpaceOnUse">
<stop stop-color="#FF9251"/>
<stop offset="1" stop-color="#FF0101"/>
</linearGradient>
<linearGradient id="paint5_linear" x1="3.43542" y1="15.8233" x2="3.43542" y2="19.1219" gradientUnits="userSpaceOnUse">
<stop stop-color="#FF9251"/>
<stop offset="1" stop-color="#FF0101"/>
</linearGradient>
<linearGradient id="paint6_linear" x1="3.33578" y1="14.7674" x2="3.33578" y2="20.1765" gradientUnits="userSpaceOnUse">
<stop stop-color="#FF9251"/>
<stop offset="1" stop-color="#FF0101"/>
</linearGradient>
<linearGradient id="paint7_linear" x1="27.3635" y1="6.69562" x2="27.3635" y2="28.2681" gradientUnits="userSpaceOnUse">
<stop stop-color="#FF9251"/>
<stop offset="1" stop-color="#FF0101"/>
</linearGradient>
</defs>
</svg>
