<svg width="38" height="29" viewBox="0 0 38 29" fill="none" xmlns="http://www.w3.org/2000/svg">
<path d="M34.0013 1.33333C32.1513 0.75 30.118 0.5 28.168 0.5C24.918 0.5 21.418 1.16667 19.0013 3C16.5846 1.16667 13.0846 0.5 9.83463 0.5C6.58463 0.5 3.08464 1.16667 0.667969 3V27.4167C0.667969 27.8333 1.08464 28.25 1.5013 28.25C1.66797 28.25 1.7513 28.1667 1.91797 28.1667C4.16797 27.0833 7.41797 26.3333 9.83463 26.3333C13.0846 26.3333 16.5846 27 19.0013 28.8333C21.2513 27.4167 25.3346 26.3333 28.168 26.3333C30.918 26.3333 33.7513 26.8333 36.0846 28.0833C36.2513 28.1667 36.3346 28.1667 36.5013 28.1667C36.918 28.1667 37.3346 27.75 37.3346 27.3333V3C36.3346 2.25 35.2513 1.75 34.0013 1.33333ZM34.0013 23.8333C32.168 23.25 30.168 23 28.168 23C25.3346 23 21.2513 24.0833 19.0013 25.5V6.33333C21.2513 4.91667 25.3346 3.83333 28.168 3.83333C30.168 3.83333 32.168 4.08333 34.0013 4.66667V23.8333Z" fill="url(#paint0_linear)"/>
<path d="M28.168 10.5C29.6346 10.5 31.0513 10.65 32.3346 10.9333V8.4C31.018 8.15 29.6013 8 28.168 8C25.3346 8 22.768 8.48333 20.668 9.38333V12.15C22.5513 11.0833 25.168 10.5 28.168 10.5Z" fill="url(#paint1_linear)"/>
<path d="M20.668 13.8167V16.5833C22.5513 15.5167 25.168 14.9333 28.168 14.9333C29.6346 14.9333 31.0513 15.0833 32.3346 15.3667V12.8333C31.018 12.5833 29.6013 12.4333 28.168 12.4333C25.3346 12.4333 22.768 12.9333 20.668 13.8167Z" fill="url(#paint2_linear)"/>
<path d="M28.168 16.8833C25.3346 16.8833 22.768 17.3667 20.668 18.2667V21.0333C22.5513 19.9667 25.168 19.3833 28.168 19.3833C29.6346 19.3833 31.0513 19.5333 32.3346 19.8167V17.2833C31.018 17.0167 29.6013 16.8833 28.168 16.8833Z" fill="url(#paint3_linear)"/>
<defs>
<linearGradient id="paint0_linear" x1="19.0013" y1="0.5" x2="19.0013" y2="28.8333" gradientUnits="userSpaceOnUse">
<stop stop-color="#FF00D6"/>
<stop offset="1" stop-color="#FC1818"/>
</linearGradient>
<linearGradient id="paint1_linear" x1="26.5013" y1="8" x2="26.5013" y2="12.15" gradientUnits="userSpaceOnUse">
<stop stop-color="#FF00D6"/>
<stop offset="1" stop-color="#FC1818"/>
</linearGradient>
<linearGradient id="paint2_linear" x1="26.5013" y1="12.4333" x2="26.5013" y2="16.5833" gradientUnits="userSpaceOnUse">
<stop stop-color="#FF00D6"/>
<stop offset="1" stop-color="#FC1818"/>
</linearGradient>
<linearGradient id="paint3_linear" x1="26.5013" y1="16.8833" x2="26.5013" y2="21.0333" gradientUnits="userSpaceOnUse">
<stop stop-color="#FF00D6"/>
<stop offset="1" stop-color="#FC1818"/>
</linearGradient>
</defs>
</svg>
