<svg width="36" height="36" viewBox="0 0 36 36" fill="none" xmlns="http://www.w3.org/2000/svg">
<path d="M26.4843 19.8496V16.085C27.7611 15.8322 28.7246 14.6963 28.7246 13.3328C28.7246 11.7839 27.4809 10.5283 25.9471 10.5283C25.1849 10.5283 24.4943 10.8383 23.9926 11.3405L20.492 9.1383C20.5048 9.02867 20.5115 8.9175 20.5115 8.80453C20.5115 7.25563 19.2681 6 17.7342 6C16.2004 6 14.957 7.25563 14.957 8.80453C14.957 10.3534 16.2004 11.6091 17.7342 11.6091C18.7662 11.6091 19.6668 11.0406 20.1454 10.1969L23.3896 12.2379C23.2483 12.5742 23.1699 12.9444 23.1699 13.3328C23.1699 14.6963 24.1333 15.8322 25.41 16.085V19.8496C24.1333 20.1021 23.1699 21.2383 23.1699 22.6017C23.1699 24.1506 24.4135 25.406 25.9471 25.406C27.4809 25.406 28.7246 24.1506 28.7246 22.6017C28.7246 21.2383 27.7611 20.1021 26.4843 19.8496" fill="#FF6000"/>
<path d="M20.5116 17.9673C20.5116 16.4184 19.2682 15.1628 17.7344 15.1628C16.2008 15.1628 14.9572 16.4184 14.9572 17.9673C14.9572 19.3305 15.9206 20.4654 17.1972 20.7182V24.4436C16.5127 24.579 15.9183 24.9685 15.5143 25.5106L12.3925 23.5467C12.4972 23.2514 12.5542 22.9334 12.5542 22.6017C12.5542 21.2385 11.591 20.1023 10.3141 19.8495V16.0849C11.591 15.8324 12.5542 14.6962 12.5542 13.333C12.5542 11.7839 11.311 10.5285 9.77721 10.5285C8.24314 10.5285 7 11.7839 7 13.333C7 14.6962 7.9632 15.8324 9.24006 16.0849V19.8495C7.9632 20.1023 7 21.2385 7 22.6017C7 24.1506 8.24314 25.4062 9.77721 25.4062C10.5969 25.4062 11.3338 25.0477 11.842 24.4771L15.0453 26.4924C14.9878 26.717 14.9572 26.9528 14.9572 27.1955C14.9572 28.7444 16.2008 30 17.7344 30C19.2682 30 20.5116 28.7444 20.5116 27.1955C20.5116 25.8323 19.5484 24.6961 18.2715 24.4436V20.7182C19.5482 20.4654 20.5116 19.3305 20.5116 17.9673Z" fill="#FF6000"/>
<path d="M17.0065 29.8129C15.9136 29.4785 15.0606 28.2859 15.0606 27.0924C15.0606 26.4019 15.0214 26.3603 13.4661 25.396C12.1856 24.6022 11.8156 24.449 11.5878 24.618C10.3256 25.5547 8.94755 25.5317 7.98318 24.5578C6.58849 23.1494 6.99629 20.8257 8.76946 20.0776L9.38004 19.8199V17.9858V16.1517L8.61063 15.7215C6.48875 14.5351 6.70167 11.5782 8.96722 10.7694C10.9191 10.0726 12.9383 12.0502 12.3387 14.0713C12.1183 14.8142 11.05 15.9389 10.5647 15.9389C10.3452 15.9389 10.2963 16.31 10.2963 17.9744C10.2963 19.6389 10.3452 20.0099 10.5647 20.0099C11.0178 20.0099 12.0942 21.1018 12.3189 21.7892C12.4358 22.1469 12.4829 22.7049 12.4236 23.029C12.3187 23.6021 12.3589 23.6452 13.88 24.5926L15.4443 25.5669L16.0312 25.1288C16.354 24.8879 16.7625 24.6395 16.9388 24.5767C17.2169 24.4778 17.2584 24.2099 17.2509 22.5601L17.2424 20.6576L16.4932 20.2861C14.5681 19.3316 14.5952 16.6282 16.5401 15.6046C17.4873 15.1061 18.4575 15.1659 19.3045 15.775C20.9137 16.9321 20.6799 19.5972 18.903 20.3508L18.1794 20.6576L18.1776 22.5391L18.1757 24.4206L18.8605 24.7596C20.2195 25.4326 20.7469 27.0262 20.0803 28.4449C19.583 29.503 18.1208 30.1538 17.0065 29.8129H17.0065Z" fill="#FF6000"/>
<path d="M24.8208 25.0218C22.8035 24.0738 22.776 21.0728 24.7768 20.2243L25.5004 19.9174L25.5023 17.9654L25.5041 16.0133L24.8559 15.7766C24.4562 15.6307 24.0258 15.2624 23.7335 14.8164C23.3342 14.2071 23.2721 13.9385 23.3399 13.1135L23.4203 12.134L21.7962 11.1424L20.172 10.1508L19.6771 10.6167C18.9677 11.2845 18.4803 11.4979 17.6638 11.4979C15.7329 11.4979 14.4196 9.13627 15.4248 7.47145C16.7284 5.31222 20.0484 5.93916 20.3227 8.39636C20.4113 9.19094 20.4405 9.2211 22.1494 10.2833L23.8861 11.3627L24.6694 10.9677C25.6632 10.4665 26.1457 10.4706 27.1467 10.989C29.0851 11.9927 29.1083 14.7072 27.1867 15.66L26.4375 16.0315L26.4289 17.9836L26.4204 19.9356L27.0563 20.1678C28.9025 20.842 29.1278 23.7604 27.4162 24.8286C26.5199 25.388 25.7257 25.4471 24.8208 25.0218L24.8208 25.0218Z" fill="#FF6000"/>
<path d="M9.28624 25.3468C7.97646 25.0959 7.02734 23.9529 7.02734 22.6266C7.02734 22.4392 7.05044 22.1725 7.07866 22.0338C7.22124 21.3332 7.66007 20.681 8.26202 20.2751C8.50043 20.1143 8.91594 19.9242 8.99503 19.9397C9.02322 19.9453 8.96009 19.9847 8.85474 20.0274C8.02181 20.365 7.4455 21.0175 7.21869 21.8798C7.12233 22.2462 7.12217 22.8535 7.21835 23.221C7.45423 24.1223 8.10654 24.8746 8.90839 25.1701C9.69515 25.4601 10.5758 25.3091 11.4417 24.7359C11.5802 24.6442 11.7001 24.5758 11.708 24.5838C11.7397 24.6158 11.2391 24.9796 10.9955 25.1016C10.4914 25.3541 9.8241 25.4498 9.28624 25.3468Z" fill="#FF6000"/>
<path d="M9.37109 17.9871C9.37109 16.9795 9.37527 16.5626 9.38038 17.0606C9.38547 17.5586 9.38547 18.3829 9.38039 18.8925C9.37529 19.402 9.3711 18.9946 9.3711 17.9871H9.37109Z" fill="#FF6000"/>
<path d="M9.25781 17.9718C9.25781 16.3287 9.26354 16.1104 9.3064 16.127C9.3488 16.1435 9.35499 16.381 9.35499 17.9906C9.35499 19.6085 9.34902 19.8353 9.3064 19.8353C9.26378 19.8353 9.25781 19.6064 9.25781 17.9718Z" fill="#FF6000"/>
<path d="M25.5506 25.3689C24.6512 25.2263 23.8717 24.6572 23.4808 23.8577C23.2615 23.4092 23.1922 23.1092 23.1914 22.6059C23.1908 22.2277 23.2165 22.0534 23.32 21.7305C23.6021 20.8511 24.3515 20.1337 25.2268 19.9052L25.4242 19.8537V17.9677V16.0817L25.259 16.0387C24.3654 15.8063 23.6189 15.109 23.3285 14.2354C23.2161 13.8972 23.1939 13.7482 23.1936 13.3305C23.1933 12.9823 23.2002 12.9094 23.2535 12.6944C23.2866 12.5608 23.3295 12.4151 23.3488 12.3705L23.3838 12.2896L23.3842 12.3821C23.3845 12.433 23.3695 12.6516 23.3511 12.8679C23.3024 13.4376 23.3061 13.8472 23.3619 14.0675C23.4787 14.5285 23.9233 15.1738 24.3438 15.4924C24.5619 15.6577 24.717 15.7356 25.1233 15.8837L25.4814 16.0143V17.9643V19.9143L25.0348 20.1057C24.5587 20.3097 24.4192 20.3858 24.1948 20.5635C23.8076 20.8703 23.5137 21.3356 23.3724 21.8657C23.2899 22.1751 23.2688 22.7277 23.3273 23.0454C23.513 24.0535 24.1434 24.7978 25.1082 25.1478C25.4507 25.272 25.6808 25.3082 26.0418 25.2944C26.4911 25.2772 26.8332 25.1745 27.2681 24.9261C27.8563 24.5901 28.2279 24.1418 28.434 23.5195C28.7655 22.5184 28.5361 21.3718 27.8675 20.6886C27.5806 20.3954 27.3477 20.26 26.7699 20.0507L26.432 19.9283V18.7785C26.432 18.1462 26.4388 17.2696 26.4471 16.8307L26.4622 16.0326L26.9338 15.7951C27.4367 15.5419 27.6088 15.4313 27.8409 15.212C28.3499 14.7312 28.6175 14.09 28.6164 13.3536C28.6156 12.8126 28.4678 12.3271 28.1659 11.8732C28.023 11.6585 27.6811 11.3184 27.4521 11.1634C27.1069 10.9296 26.5936 10.7001 26.2488 10.6254L26.0999 10.5932L26.296 10.5914C26.914 10.5856 27.7014 11.0416 28.1712 11.6775C28.9847 12.7783 28.866 14.3334 27.894 15.3112C27.5616 15.6456 27.1464 15.891 26.6976 16.0184L26.4778 16.0808V17.9729C26.4778 19.6325 26.482 19.8649 26.5119 19.8649C26.5874 19.8649 27.0051 20.0154 27.1879 20.1085C28.4337 20.7428 29.0199 22.2211 28.5495 23.5427C28.4132 23.9258 28.2273 24.2255 27.9379 24.5287C27.5484 24.9367 27.1478 25.1716 26.5943 25.3164C26.4205 25.3619 26.3032 25.3756 26.0312 25.3823C25.8422 25.3869 25.626 25.3809 25.5506 25.369L25.5506 25.3689Z" fill="#FF6000"/>
</svg>
