<svg width="36" height="36" viewBox="0 0 36 36" fill="none" xmlns="http://www.w3.org/2000/svg">
<path d="M6.064 22V12.76H9.536C10.5067 12.76 11.3047 13.0353 11.93 13.586C12.5553 14.1367 12.868 14.8553 12.868 15.742C12.868 16.6193 12.5553 17.338 11.93 17.898C11.3047 18.458 10.5067 18.738 9.536 18.738H7.954V22H6.064ZM7.954 17.086H9.536C9.97467 17.086 10.3153 16.9647 10.558 16.722C10.81 16.47 10.936 16.1433 10.936 15.742C10.936 15.35 10.8053 15.0327 10.544 14.79C10.292 14.5473 9.956 14.426 9.536 14.426H7.954V17.086ZM14.3765 22V12.76H17.4005C18.8752 12.7413 20.0885 13.166 21.0405 14.034C21.9925 14.8927 22.4592 15.9987 22.4405 17.352C22.4592 18.696 21.9878 19.8113 21.0265 20.698C20.0652 21.5847 18.8565 22.0187 17.4005 22H14.3765ZM16.2665 20.292H17.3865C18.3198 20.292 19.0712 20.026 19.6405 19.494C20.2098 18.9527 20.4945 18.2387 20.4945 17.352C20.4945 16.456 20.2145 15.7513 19.6545 15.238C19.0945 14.7247 18.3385 14.468 17.3865 14.468H16.2665V20.292ZM24.0425 22V12.76H30.1185V14.468H25.9325V16.778H29.3625V18.486H25.9325V22H24.0425Z" fill="#DB6767"/>
</svg>
